# xmcd
#
# Track frame offsets:
#   150
#   6570
#   16830
#   21345
#   32387
#   38027
#   48507
#   59235
#   67005
#   81375
#   97045
#
# Disc length: 1489 seconds
#
# Revision: 0
# Processed by: cddbd v1.5PL3 Copyright (c) Steve Scherf et al.
# Submitted via: Media_Universe 3.0
#
DISCID=9405cf0b
DTITLE=Tammy Wynette - Stand By Your Man
DYEAR=1900
DGENRE=Country
TTITLE0=Welcome To My World
TTITLE1=Another Chance
TTITLE2=Your Good Girl's Gonna Go Bad
TTITLE3=D.I.V.O.R.C.E
TTITLE4=Singing My Song
TTITLE5=Womanhood
TTITLE6=Fairytales
TTITLE7=When The Green Green Grass Grows Over Me
TTITLE8=Stand By Your Man
TTITLE9=Till I Can Make It On My Own
TTITLE10=Crying In The Rain
EXTD=
EXTT0=
EXTT1=
EXTT2=
EXTT3=
EXTT4=
EXTT5=
EXTT6=
EXTT7=
EXTT8=
EXTT9=
EXTT10=
PLAYORDER=
